<svg xmlns="http://www.w3.org/2000/svg" width="532.031" height="234.375" viewBox="0 0 532.031 234.375"><path d="M403.609 455.9 365.3 561.12h42.5l38.309-105.22h-42.5Zm57.84 0-8.985 24.676H443.6l-11.765 32.312h8.86l-11.253 30.906h42.5l32-87.894h-42.5Zm88.651 64.879h-33.718l3.543-9.73h33.722l8.157-22.4h-33.722l3.543-9.731h33.722l8.38-23.015h-55.275l-11.536 8.454-5.3 14.561-3.543 9.731-8.157 22.4-3.544 9.73-8.38 23.016h63.733Zm87.966-26.279 2.479-6.808 3.2-8.778 3.577-9.824 4.8-13.191h-63.893l-11.536 8.454-5.3 14.561-23.622 64.879h30.01l23.619-64.877h17.237l-1.927 5.293-20.483 15.015 4.571 44.571h25.225l-3.859-37.633Zm62.34 40.838 5.3-14.561 18.494-50.785-8.966-14.092h-48.607l-11.537 8.454-5.3 14.561h41.15l-2.326 6.388-12.914 35.476h-11.144l12.917-35.479h-30.01l-16.169 44.407 8.961 14.084h48.615ZM418.751 414.313l-10.328 28.365 5.724 9h54.245l7.369-5.4 3.386-9.3 11.812-32.44-5.727-9h-54.24l-7.369 5.4-3.386 9.3h39.7l-1.485 4.081-8.252 22.653h-10.75l8.251-22.659h-28.95Zm459.273-53.6h-14.475L715.5 559.724h14.474l23.971-32.224 6.758 32.221h60.184l-20.365-94.832Zm-61.708 34.65-23.843 32.052-6.884-32.052h-60.184l20.366 94.831-77.5 104.183h14.474l148.046-199.018h-14.475Zm-336.477 56.31h58.555l7.369-5.4L552.051 429l-10.988-5.759 14.647-4.291 8.528-23.422H500.28Zm30.33-12.824 5.525-15.174 14.6 7.651-2.739 7.523h-17.386Zm28.489-30.493L536.2 415.1l-19.461 5.7 4.531-12.445h17.386Zm24.009 8.092-5.21 14.309-2.263 6.215-5.353 14.7h61.48l5.353-14.7h-32.531l2.264-6.215h32.53l5.21-14.309h-32.53l2.263-6.216h32.53l5.353-14.7h-56.078l-7.369 5.4-3.386 9.3-2.263 6.216ZM388.5 480.784l32.58-89.48h74.691l11.4-31.318H361.137l-11.4 31.318h28.85L346 480.784h42.5Z" style="fill:#000;fill-rule:evenodd" transform="translate(-346 -360)"/></svg>